<svg width="48" height="48" viewBox="0 0 48 48" fill="none" xmlns="http://www.w3.org/2000/svg">
<path d="M32.7007 13.9315H15.2406C13.9766 13.9315 12.952 14.9561 12.952 16.2201V31.7819C12.952 33.0459 13.9766 34.0705 15.2406 34.0705H32.7007C33.9647 34.0705 34.9893 33.0459 34.9893 31.7819V16.2201C34.9893 14.9561 33.9647 13.9315 32.7007 13.9315Z" stroke="#00553A" stroke-width="1.38708" stroke-miterlimit="12.41" stroke-linecap="round" stroke-linejoin="round"/>
<path d="M16.4267 18.3198C16.9754 18.3198 17.4202 17.875 17.4202 17.3262C17.4202 16.7775 16.9754 16.3327 16.4267 16.3327C15.8779 16.3327 15.4331 16.7775 15.4331 17.3262C15.4331 17.875 15.8779 18.3198 16.4267 18.3198Z" fill="#00553A"/>
<path d="M31.8281 32.2703C32.3768 32.2703 32.8216 31.8255 32.8216 31.2768C32.8216 30.7281 32.3768 30.2833 31.8281 30.2833C31.2794 30.2833 30.8345 30.7281 30.8345 31.2768C30.8345 31.8255 31.2794 32.2703 31.8281 32.2703Z" fill="#00553A"/>
<path d="M16.1146 10.2199V6.84232" stroke="#00553A" stroke-width="1.58887" stroke-miterlimit="12.41" stroke-linecap="round" stroke-linejoin="round"/>
<path d="M20.089 10.3186V5.08455" stroke="#00553A" stroke-width="1.58887" stroke-miterlimit="12.41" stroke-linecap="round" stroke-linejoin="round"/>
<path d="M24.0631 10.2397V2.29443" stroke="#00553A" stroke-width="1.58887" stroke-miterlimit="12.41" stroke-linecap="round" stroke-linejoin="round"/>
<path d="M27.9578 10.2989V5.05664" stroke="#00553A" stroke-width="1.58887" stroke-miterlimit="12.41" stroke-linecap="round" stroke-linejoin="round"/>
<path d="M31.8525 10.2397V6.84232" stroke="#00553A" stroke-width="1.58887" stroke-miterlimit="12.41" stroke-linecap="round" stroke-linejoin="round"/>
<path d="M16.1146 37.7801V41.1577" stroke="#00553A" stroke-width="1.58887" stroke-miterlimit="12.41" stroke-linecap="round" stroke-linejoin="round"/>
<path d="M20.089 37.6814V42.9155" stroke="#00553A" stroke-width="1.58887" stroke-miterlimit="12.41" stroke-linecap="round" stroke-linejoin="round"/>
<path d="M24.0631 37.7603V45.7056" stroke="#00553A" stroke-width="1.58887" stroke-miterlimit="12.41" stroke-linecap="round" stroke-linejoin="round"/>
<path d="M27.9578 37.7011V42.9434" stroke="#00553A" stroke-width="1.58887" stroke-miterlimit="12.41" stroke-linecap="round" stroke-linejoin="round"/>
<path d="M31.8525 37.7603V41.1577" stroke="#00553A" stroke-width="1.58887" stroke-miterlimit="12.41" stroke-linecap="round" stroke-linejoin="round"/>
<path d="M38.6017 18.3535H43.3034" stroke="#00553A" stroke-width="1.58967" stroke-miterlimit="12.41" stroke-linecap="round" stroke-linejoin="round"/>
<path d="M38.6017 22.3274H43.3034" stroke="#00553A" stroke-width="1.58967" stroke-miterlimit="12.41" stroke-linecap="round" stroke-linejoin="round"/>
<path d="M38.6017 25.9836H43.3034" stroke="#00553A" stroke-width="1.58967" stroke-miterlimit="12.41" stroke-linecap="round" stroke-linejoin="round"/>
<path d="M38.6017 29.9578H43.3034" stroke="#00553A" stroke-width="1.58967" stroke-miterlimit="12.41" stroke-linecap="round" stroke-linejoin="round"/>
<path d="M4.69656 18.3535H9.39834" stroke="#00553A" stroke-width="1.58967" stroke-miterlimit="12.41" stroke-linecap="round" stroke-linejoin="round"/>
<path d="M4.69656 22.3274H9.39834" stroke="#00553A" stroke-width="1.58967" stroke-miterlimit="12.41" stroke-linecap="round" stroke-linejoin="round"/>
<path d="M4.69656 25.9836H9.39834" stroke="#00553A" stroke-width="1.58967" stroke-miterlimit="12.41" stroke-linecap="round" stroke-linejoin="round"/>
<path d="M4.69656 29.9578H9.39834" stroke="#00553A" stroke-width="1.58967" stroke-miterlimit="12.41" stroke-linecap="round" stroke-linejoin="round"/>
<path d="M23.1461 16.6594C22.9164 16.6592 22.689 16.7043 22.4767 16.7921C22.2645 16.8799 22.0717 17.0086 21.9092 17.171C21.7467 17.3333 21.6178 17.526 21.5299 17.7382C21.4419 17.9503 21.3966 18.1777 21.3965 18.4074C21.3977 18.7225 21.4841 19.0315 21.6464 19.3015L19.2868 24.7086C19.2434 24.7039 19.1999 24.7008 19.1564 24.6993C19.0091 24.7 18.8626 24.7193 18.7201 24.7567L17.9362 23.4667C17.8654 23.3509 17.7662 23.2552 17.648 23.1886C17.5298 23.122 17.3965 23.0868 17.2609 23.0863H13.1827V24.676H16.8091L17.5201 25.8434C17.447 26.0364 17.4087 26.2409 17.4068 26.4473C17.4069 26.6769 17.4522 26.9043 17.5402 27.1165C17.6282 27.3286 17.7571 27.5214 17.9195 27.6837C18.082 27.846 18.2749 27.9747 18.4871 28.0625C18.6993 28.1503 18.9267 28.1954 19.1564 28.1953C19.6199 28.1951 20.0645 28.0109 20.3922 27.6831C20.72 27.3554 20.9042 26.9108 20.9044 26.4473C20.9029 26.1327 20.8166 25.8243 20.6545 25.5547L23.0126 20.1461C23.0188 20.1466 23.0249 20.1471 23.0311 20.1476L25.591 28.4064C25.3329 28.7188 25.1914 29.1112 25.1905 29.5164C25.1906 29.7461 25.2359 29.9735 25.3239 30.1856C25.4118 30.3977 25.5407 30.5905 25.7032 30.7528C25.8657 30.9151 26.0585 31.0438 26.2707 31.1316C26.483 31.2194 26.7104 31.2645 26.9401 31.2644C27.4036 31.2642 27.8481 31.08 28.1759 30.7522C28.5037 30.4245 28.6879 29.9799 28.6881 29.5164C28.6869 29.2498 28.6248 28.9869 28.5064 28.748L30.6627 24.5347H34.9225V22.945H30.1753C30.0292 22.9457 29.8861 22.9867 29.7618 23.0634C29.6375 23.14 29.5367 23.2495 29.4705 23.3797L27.2117 27.7917C27.1607 27.7847 27.1095 27.7801 27.058 27.7777L24.4935 19.5173C24.7516 19.2049 24.8931 18.8126 24.894 18.4074C24.8938 17.9438 24.7096 17.4993 24.3818 17.1715C24.0541 16.8437 23.6096 16.6595 23.1461 16.6594ZM23.1461 17.8516C23.2436 17.8516 23.3395 17.8773 23.4239 17.9261C23.5084 17.9749 23.5785 18.045 23.6273 18.1295C23.6761 18.214 23.7018 18.3098 23.7018 18.4074C23.7018 18.5049 23.6761 18.6008 23.6273 18.6852C23.5785 18.7697 23.5084 18.8398 23.4239 18.8886C23.3395 18.9374 23.2436 18.9631 23.1461 18.9631C23.0485 18.9631 22.9527 18.9374 22.8682 18.8886C22.7832 18.84 22.7125 18.7699 22.6633 18.6852C22.6145 18.6008 22.5888 18.5049 22.5887 18.4074C22.5888 18.3098 22.6145 18.214 22.6633 18.1295C22.7125 18.0448 22.7832 17.9747 22.8682 17.9261C22.9527 17.8773 23.0485 17.8516 23.1461 17.8516ZM19.1564 25.8915C19.2539 25.8916 19.3498 25.9173 19.4343 25.966C19.5187 26.0148 19.5888 26.085 19.6376 26.1694C19.6864 26.2539 19.7121 26.3497 19.7122 26.4473C19.7121 26.5448 19.6864 26.6407 19.6376 26.7252C19.5888 26.8096 19.5187 26.8797 19.4343 26.9285C19.3498 26.9773 19.2539 27.003 19.1564 27.003C19.0588 27.003 18.963 26.9773 18.8785 26.9285C18.7935 26.8799 18.7228 26.8098 18.6736 26.7252C18.6248 26.6407 18.5991 26.5448 18.5991 26.4473C18.5991 26.3497 18.6248 26.2539 18.6736 26.1694C18.7228 26.0848 18.7935 26.0146 18.8785 25.966C18.963 25.9173 19.0588 25.8916 19.1564 25.8915ZM26.9401 28.9606C27.0377 28.9607 27.1335 28.9864 27.218 29.0351C27.3025 29.0839 27.3726 29.1541 27.4214 29.2385C27.4702 29.323 27.4959 29.4188 27.4959 29.5164C27.4959 29.6139 27.4702 29.7098 27.4214 29.7943C27.3726 29.8787 27.3025 29.9488 27.218 29.9976C27.1335 30.0464 27.0377 30.0721 26.9401 30.0721C26.8426 30.0721 26.7467 30.0464 26.6623 29.9976C26.5772 29.9491 26.5066 29.8789 26.4573 29.7943C26.4086 29.7098 26.3829 29.6139 26.3828 29.5164C26.3829 29.4188 26.4086 29.323 26.4573 29.2385C26.5066 29.1539 26.5772 29.0837 26.6623 29.0351C26.7467 28.9864 26.8426 28.9607 26.9401 28.9606Z" fill="#00553A"/>
<path d="M32.4054 10.8225H15.4436C12.3745 10.8225 9.88649 13.3223 9.88649 16.406V31.6438C9.88649 34.7275 12.3745 37.2273 15.4436 37.2273H32.4054C35.4745 37.2273 37.9625 34.7275 37.9625 31.6438V16.406C37.9625 13.3223 35.4745 10.8225 32.4054 10.8225Z" stroke="#00553A" stroke-width="1.79235" stroke-miterlimit="12.41" stroke-linecap="round" stroke-linejoin="round"/>
</svg>
